<svg xmlns="http://www.w3.org/2000/svg" width="18.721" height="18.001" viewBox="0 0 18.721 18.001">
  <g id="headphones_solid" transform="translate(-2.16 -3.6)">
    <g id="Group_35482" data-name="Group 35482" transform="translate(2.16 3.6)">
      <path id="Path_32151" data-name="Path 32151" d="M3.12,12c1.795,0,2.692,0,3.36.386A2.88,2.88,0,0,1,7.534,13.44c.386.668.386,1.566.386,3.36v1.92a2.88,2.88,0,0,1-5.76,0V12c0-4.717,4.273-8.4,9.36-8.4s9.36,3.684,9.36,8.4v6.72a2.88,2.88,0,0,1-5.76,0V16.8c0-1.795,0-2.692.386-3.36a2.879,2.879,0,0,1,1.054-1.054C17.229,12,18.126,12,19.921,12h-.48c0-3.767-3.464-6.96-7.92-6.96S3.6,8.234,3.6,12Z" transform="translate(-2.16 -3.6)" fill="#f77c27"/>
    </g>
  </g>
</svg>
