<svg xmlns="http://www.w3.org/2000/svg" width="16.72" height="16.077" viewBox="0 0 16.72 16.077">
  <g id="headphones_solid" transform="translate(-2.16 -3.6)">
    <g id="Group_35482" data-name="Group 35482" transform="translate(2.16 3.6)">
      <path id="Path_32151" data-name="Path 32151" d="M3.017,11.1c1.6,0,2.4,0,3,.345a2.572,2.572,0,0,1,.942.942c.345.6.345,1.4.345,3V17.1a2.572,2.572,0,0,1-5.145,0v-6c0-4.213,3.816-7.5,8.36-7.5s8.36,3.29,8.36,7.5v6a2.572,2.572,0,0,1-5.145,0V15.39c0-1.6,0-2.4.345-3a2.572,2.572,0,0,1,.942-.942c.6-.345,1.4-.345,3-.345h-.429c0-3.364-3.094-6.217-7.074-6.217S3.446,7.739,3.446,11.1Z" transform="translate(-2.16 -3.6)" fill="#075307"/>
    </g>
  </g>
</svg>
