<svg xmlns="http://www.w3.org/2000/svg" xmlns:xlink="http://www.w3.org/1999/xlink" width="15.93" height="15.93" viewBox="0 0 15.93 15.93">
  <defs>
    <clipPath id="clip-path">
      <rect id="Rectangle_2744" data-name="Rectangle 2744" width="15.93" height="15.93" transform="translate(0 0)" fill="#075307"/>
    </clipPath>
  </defs>
  <g id="Group_4797" data-name="Group 4797" clip-path="url(#clip-path)">
    <path id="Path_11395" data-name="Path 11395" d="M8.183,1.474c2.186,0,2.445.01,3.305.048a4.483,4.483,0,0,1,1.518.281,2.528,2.528,0,0,1,.94.611,2.515,2.515,0,0,1,.611.94,4.5,4.5,0,0,1,.281,1.518c.038.863.048,1.122.048,3.305s-.01,2.445-.048,3.305A4.484,4.484,0,0,1,14.556,13a2.7,2.7,0,0,1-1.55,1.55,4.5,4.5,0,0,1-1.518.281c-.863.038-1.122.048-3.305.048s-2.445-.01-3.305-.048a4.485,4.485,0,0,1-1.518-.281,2.53,2.53,0,0,1-.94-.61A2.519,2.519,0,0,1,1.809,13a4.5,4.5,0,0,1-.281-1.518c-.038-.863-.048-1.122-.048-3.305s.01-2.445.048-3.305a4.484,4.484,0,0,1,.281-1.518,2.536,2.536,0,0,1,.611-.94,2.519,2.519,0,0,1,.94-.611,4.5,4.5,0,0,1,1.518-.281C5.737,1.483,6,1.474,8.183,1.474ZM8.183,0C5.961,0,5.683.01,4.81.048a5.975,5.975,0,0,0-1.985.38,4,4,0,0,0-1.451.946A4.013,4.013,0,0,0,.428,2.822a6,6,0,0,0-.38,1.985C.01,5.683,0,5.961,0,8.183s.01,2.5.048,3.372a5.98,5.98,0,0,0,.38,1.985,4,4,0,0,0,.946,1.451,4,4,0,0,0,1.448.943,6,6,0,0,0,1.985.38c.872.038,1.151.048,3.372.048s2.5-.01,3.372-.048a5.98,5.98,0,0,0,1.985-.38,4.181,4.181,0,0,0,2.391-2.391,6,6,0,0,0,.38-1.985c.039-.873.048-1.151.048-3.372s-.01-2.5-.048-3.372a5.98,5.98,0,0,0-.38-1.985,3.837,3.837,0,0,0-.937-1.454A4,4,0,0,0,13.543.432a6,6,0,0,0-1.985-.38C10.682.01,10.4,0,8.183,0Z" transform="translate(-0.28 -0.159)" fill="#075307"/>
    <path id="Path_11396" data-name="Path 11396" d="M4.2,0a4.2,4.2,0,1,0,4.2,4.2A4.2,4.2,0,0,0,4.2,0Zm0,6.93A2.727,2.727,0,1,1,6.93,4.2,2.727,2.727,0,0,1,4.2,6.93Z" transform="translate(3.7 3.82)" fill="#075307"/>
    <path id="Path_11397" data-name="Path 11397" d="M1.962.981A.981.981,0,1,1,.981,0,.982.982,0,0,1,1.962.981Z" transform="translate(11.291 2.673)" fill="#075307"/>
  </g>
</svg>
