<svg xmlns="http://www.w3.org/2000/svg" width="16" height="19" viewBox="0 0 16 19">
  <path id="Path_32177" data-name="Path 32177" d="M15.9,6.633A7.746,7.746,0,0,0,8.126.75H8.117A7.745,7.745,0,0,0,.346,6.624C-.708,11.155,2.14,15.992,4.718,18.407a4.981,4.981,0,0,0,6.806,0C14.1,15.992,16.95,11.164,15.9,6.633Zm-7.77,4.4a2.905,2.905,0,0,1-1.087-.211,2.846,2.846,0,0,1-.921-.6,2.763,2.763,0,0,1-.616-.9,2.7,2.7,0,0,1,0-2.117,2.762,2.762,0,0,1,.616-.9,2.846,2.846,0,0,1,.921-.6,2.9,2.9,0,0,1,3.094.6,2.715,2.715,0,0,1,0,3.912A2.878,2.878,0,0,1,8.126,11.032Z" transform="translate(-0.121 -0.75)" fill="#075307"/>
</svg>
