<svg xmlns="http://www.w3.org/2000/svg" width="19.8" height="19.8" viewBox="0 0 19.8 19.8">
  <g id="logo-whatsapp" transform="translate(-3 -3)">
    <path id="Path_2" data-name="Path 2" d="M19.915,5.877A9.868,9.868,0,0,0,3.083,12.811,9.75,9.75,0,0,0,4.4,17.717L3,22.8l5.226-1.364a9.884,9.884,0,0,0,4.712,1.193h0A9.85,9.85,0,0,0,22.8,12.817a9.731,9.731,0,0,0-2.885-6.94Zm-6.974,15.1h0a8.21,8.21,0,0,1-4.17-1.137l-.3-.177-3.1.81L6.2,17.46,6,17.15a8.179,8.179,0,1,1,6.943,3.822Zm4.494-6.108c-.246-.123-1.459-.716-1.683-.8s-.39-.123-.554.123-.637.8-.78.961-.287.184-.533.061A6.738,6.738,0,0,1,11.9,14a7.393,7.393,0,0,1-1.37-1.7c-.144-.245-.015-.378.108-.5s.246-.286.37-.43a1.659,1.659,0,0,0,.246-.409.45.45,0,0,0-.02-.43c-.061-.122-.554-1.329-.759-1.82s-.4-.413-.554-.421-.309-.009-.472-.009a.907.907,0,0,0-.657.307,2.747,2.747,0,0,0-.862,2.045,4.77,4.77,0,0,0,1.006,2.536,10.947,10.947,0,0,0,4.207,3.7,14.281,14.281,0,0,0,1.4.516,3.391,3.391,0,0,0,1.551.1,2.534,2.534,0,0,0,1.663-1.166,2.046,2.046,0,0,0,.144-1.165c-.061-.1-.226-.164-.472-.286Z" transform="translate(0 0)" fill="#075307" fill-rule="evenodd"/>
  </g>
</svg>
