<svg xmlns="http://www.w3.org/2000/svg" width="23.26" height="16.359" viewBox="0 0 23.26 16.359">
  <path id="Path_11394" data-name="Path 11394" d="M23.028,3.53A5.008,5.008,0,0,0,22.1,1.222a3.33,3.33,0,0,0-2.33-.986C16.518,0,11.634,0,11.634,0h-.009S6.742,0,3.489.236a3.33,3.33,0,0,0-2.33.986A4.984,4.984,0,0,0,.236,3.53,34.769,34.769,0,0,0,0,7.3V9.059a35.407,35.407,0,0,0,.232,3.766,5.039,5.039,0,0,0,.922,2.308,3.966,3.966,0,0,0,2.567.995c1.863.177,7.909.232,7.909.232s4.888-.009,8.141-.241a3.33,3.33,0,0,0,2.33-.986,5.008,5.008,0,0,0,.927-2.308,35.29,35.29,0,0,0,.232-3.766V7.3A35.4,35.4,0,0,0,23.028,3.53ZM9.227,11.2V4.661l6.283,3.28Z" fill="#075307"/>
</svg>
