<svg xmlns="http://www.w3.org/2000/svg" width="30.621" height="37.877" viewBox="0 0 30.621 37.877">
  <g id="_393b88b1c31b48814a97bff9f72e2440" data-name="393b88b1c31b48814a97bff9f72e2440" transform="translate(-6.999 -3.998)">
    <path id="Path_37920" data-name="Path 37920" d="M291.035,1155.11v3.223h1.612v-3.223Z" transform="translate(-269.531 -1131.772)" fill="#2b4255" fill-rule="evenodd"/>
    <path id="Path_37921" data-name="Path 37921" d="M286.841,1143.11a.806.806,0,0,0-.806.806v27.4a.806.806,0,0,0,.806.806h16.116a.806.806,0,0,0,.806-.806v-27.4a.806.806,0,0,0-.806-.806Zm.806,1.612h14.5v25.786h-14.5Z" transform="translate(-272.589 -1139.112)" fill="#2b4255"/>
    <path id="Path_37922" data-name="Path 37922" d="M13,6H24.282V9.223H13Zm0,4.835H24.282v3.223H13Zm5.641,12.893a2.417,2.417,0,1,0,2.417,2.417A2.417,2.417,0,0,0,18.641,23.728Zm0,1.612a.806.806,0,1,1-.806.806A.806.806,0,0,1,18.641,25.34ZM13,15.67H24.282v3.223H13Z" transform="translate(3.671 1.225)" fill="#378c77"/>
    <path id="Path_37923" data-name="Path 37923" d="M291.035,1160.61v3.223h1.612v-3.223Z" transform="translate(-269.531 -1128.408)" fill="#2b4255" fill-rule="evenodd"/>
    <path id="Path_37924" data-name="Path 37924" d="M14.5,23.5h6.447v6.447H14.5Z" transform="translate(4.588 11.928)" fill="#378c77"/>
    <path id="Path_37925" data-name="Path 37925" d="M282.035,1164.22v1.612h12.087v-1.612Zm18.534,0v1.612h12.087v-1.612Z" transform="translate(-275.036 -1126.2)" fill="#2b4255" fill-rule="evenodd"/>
  </g>
</svg>
