<svg width="25" height="27" viewBox="0 0 25 27" fill="none" xmlns="http://www.w3.org/2000/svg">
<path fill-rule="evenodd" clip-rule="evenodd" d="M23.2143 16.7028C23.2143 15.251 22.0179 14.0741 20.5447 14.0741C19.6473 14.0741 18.75 14.0741 18.75 14.0741C18.2545 14.0741 17.8571 14.4677 17.8571 14.9537V22.8704C17.8571 23.3564 18.2545 23.75 18.75 23.75C18.75 23.75 19.6473 23.75 20.5447 23.75C22.0179 23.75 23.2143 22.5731 23.2143 21.1212V21.1111H24.1071C24.6027 21.1111 25 20.7175 25 20.2315V12.3148C25 5.51352 19.4018 0 12.5 0C5.59821 0 0 5.51352 0 12.3148V20.2315C0 20.7175 0.397321 21.1111 0.892857 21.1111H1.78571V21.1212C1.78571 22.4398 2.77236 23.5318 4.05807 23.721C4.29468 25.2326 5.62497 26.3889 7.22765 26.3889C9.45979 26.3889 12.5 26.3889 12.5 26.3889C12.9911 26.3889 13.3929 25.9948 13.3929 25.5093C13.3929 25.0237 12.9911 24.6296 12.5 24.6296C12.5 24.6296 9.45979 24.6296 7.22765 24.6296C6.62944 24.6296 6.11606 24.2655 5.90624 23.75H6.25C6.74554 23.75 7.14286 23.3564 7.14286 22.8704V14.9537C7.14286 14.4677 6.74554 14.0741 6.25 14.0741H4.45535C2.98213 14.0741 1.78571 15.2506 1.78571 16.702V12.3148C1.78571 6.48507 6.58036 1.75926 12.5 1.75926C18.4196 1.75926 23.2143 6.48507 23.2143 12.3148M5.35714 15.8333V21.9907H4.45535C3.96874 21.9907 3.57143 21.6015 3.57143 21.1212V16.7028C3.57143 16.2226 3.96874 15.8333 4.45535 15.8333H5.35714ZM19.6429 15.8333H20.5447C21.0357 15.8333 21.4286 16.2226 21.4286 16.7028V21.1212C21.4286 21.6015 21.0357 21.9907 20.5447 21.9907H19.6429V15.8333Z" fill="#F76B1C"/>
</svg>
